<mxfile host="app.diagrams.net" modified="2023-12-06T06:36:15.317Z" agent="Mozilla/5.0 (Windows NT 10.0; Win64; x64) AppleWebKit/537.36 (KHTML, like Gecko) Chrome/118.0.0.0 Safari/537.36 OPR/104.0.0.0 (Edition Yx GX)" etag="t47_jE8xluGs4S85TBxW" version="22.1.5" type="github">
  <diagram name="Страница — 1" id="l4bdiYlrwr7MYVT2OGc-">
    <mxGraphModel dx="-7868" dy="2829" grid="1" gridSize="10" guides="1" tooltips="1" connect="1" arrows="1" fold="1" page="1" pageScale="1" pageWidth="827" pageHeight="1169" math="0" shadow="0">
      <root>
        <mxCell id="0" />
        <mxCell id="1" parent="0" />
        <mxCell id="jyYj-L48Tv8d36Xd9_vX-1" value="" style="edgeStyle=orthogonalEdgeStyle;rounded=0;orthogonalLoop=1;jettySize=auto;html=1;entryX=0.5;entryY=0;entryDx=0;entryDy=0;" edge="1" parent="1" target="jyYj-L48Tv8d36Xd9_vX-4">
          <mxGeometry relative="1" as="geometry">
            <mxPoint x="11250" y="-170.5" as="targetPoint" />
            <mxPoint x="11250" y="-210.5" as="sourcePoint" />
          </mxGeometry>
        </mxCell>
        <mxCell id="jyYj-L48Tv8d36Xd9_vX-2" style="edgeStyle=orthogonalEdgeStyle;rounded=0;orthogonalLoop=1;jettySize=auto;html=1;exitX=0.5;exitY=1;exitDx=0;exitDy=0;entryX=0.5;entryY=0;entryDx=0;entryDy=0;" edge="1" parent="1" source="jyYj-L48Tv8d36Xd9_vX-3" target="jyYj-L48Tv8d36Xd9_vX-10">
          <mxGeometry relative="1" as="geometry" />
        </mxCell>
        <mxCell id="jyYj-L48Tv8d36Xd9_vX-3" value="&lt;p style=&quot;line-height: 110%;&quot;&gt;&lt;font style=&quot;font-size: 18px;&quot;&gt;main&lt;/font&gt;&lt;/p&gt;" style="ellipse;whiteSpace=wrap;html=1;" vertex="1" parent="1">
          <mxGeometry x="11195" y="-450.5" width="110" height="60" as="geometry" />
        </mxCell>
        <mxCell id="jyYj-L48Tv8d36Xd9_vX-4" value="&lt;span style=&quot;font-size: 25px;&quot;&gt;Ввод &lt;br&gt;action&lt;br&gt;&lt;/span&gt;" style="shape=parallelogram;perimeter=parallelogramPerimeter;whiteSpace=wrap;html=1;fixedSize=1;" vertex="1" parent="1">
          <mxGeometry x="11191" y="-130.5" width="120" height="60" as="geometry" />
        </mxCell>
        <mxCell id="jyYj-L48Tv8d36Xd9_vX-5" value="" style="edgeStyle=orthogonalEdgeStyle;rounded=0;orthogonalLoop=1;jettySize=auto;html=1;" edge="1" parent="1">
          <mxGeometry relative="1" as="geometry">
            <mxPoint x="11250" y="-70.5" as="sourcePoint" />
            <mxPoint x="11250" y="-30.5" as="targetPoint" />
          </mxGeometry>
        </mxCell>
        <mxCell id="jyYj-L48Tv8d36Xd9_vX-6" value="&lt;span style=&quot;font-size: 20px;&quot;&gt;action&lt;/span&gt;" style="rhombus;whiteSpace=wrap;html=1;" vertex="1" parent="1">
          <mxGeometry x="11204" y="-30.5" width="92" height="80" as="geometry" />
        </mxCell>
        <mxCell id="jyYj-L48Tv8d36Xd9_vX-7" value="" style="edgeStyle=orthogonalEdgeStyle;rounded=0;orthogonalLoop=1;jettySize=auto;html=1;exitX=0.5;exitY=1;exitDx=0;exitDy=0;" edge="1" parent="1" source="jyYj-L48Tv8d36Xd9_vX-6">
          <mxGeometry relative="1" as="geometry">
            <mxPoint x="11250" y="-180.5" as="targetPoint" />
            <mxPoint x="11320" y="19.5" as="sourcePoint" />
            <Array as="points">
              <mxPoint x="11250" y="549.5" />
              <mxPoint x="11160" y="549.5" />
              <mxPoint x="11160" y="-180.5" />
            </Array>
          </mxGeometry>
        </mxCell>
        <mxCell id="jyYj-L48Tv8d36Xd9_vX-8" value="default" style="text;html=1;align=center;verticalAlign=middle;resizable=0;points=[];autosize=1;strokeColor=none;fillColor=none;labelBorderColor=none;labelBackgroundColor=default;fontSize=20;" vertex="1" parent="1">
          <mxGeometry x="11212" y="488.5" width="80" height="40" as="geometry" />
        </mxCell>
        <mxCell id="jyYj-L48Tv8d36Xd9_vX-9" value="" style="endArrow=classic;html=1;rounded=0;entryX=0.5;entryY=0;entryDx=0;entryDy=0;" edge="1" parent="1" target="jyYj-L48Tv8d36Xd9_vX-15">
          <mxGeometry width="50" height="50" relative="1" as="geometry">
            <mxPoint x="11250" y="189.5" as="sourcePoint" />
            <mxPoint x="11640" y="270" as="targetPoint" />
            <Array as="points">
              <mxPoint x="11556" y="190" />
            </Array>
          </mxGeometry>
        </mxCell>
        <mxCell id="jyYj-L48Tv8d36Xd9_vX-10" value="&lt;span style=&quot;font-size: 23px;&quot;&gt;len = 0&lt;/span&gt;" style="rounded=0;whiteSpace=wrap;html=1;fontSize=20;" vertex="1" parent="1">
          <mxGeometry x="11138" y="-352.00000000000006" width="224" height="51" as="geometry" />
        </mxCell>
        <mxCell id="jyYj-L48Tv8d36Xd9_vX-11" style="edgeStyle=orthogonalEdgeStyle;rounded=0;orthogonalLoop=1;jettySize=auto;html=1;exitX=0.5;exitY=1;exitDx=0;exitDy=0;entryX=0.5;entryY=0;entryDx=0;entryDy=0;" edge="1" parent="1" target="jyYj-L48Tv8d36Xd9_vX-12">
          <mxGeometry relative="1" as="geometry">
            <mxPoint x="11250" y="-299.5" as="sourcePoint" />
          </mxGeometry>
        </mxCell>
        <mxCell id="jyYj-L48Tv8d36Xd9_vX-12" value="&lt;span style=&quot;font-size: 23px;&quot;&gt;initialized = 0&lt;/span&gt;" style="rounded=0;whiteSpace=wrap;html=1;fontSize=20;" vertex="1" parent="1">
          <mxGeometry x="11138" y="-261.50000000000006" width="224" height="51" as="geometry" />
        </mxCell>
        <mxCell id="jyYj-L48Tv8d36Xd9_vX-13" style="edgeStyle=orthogonalEdgeStyle;rounded=0;orthogonalLoop=1;jettySize=auto;html=1;exitX=1;exitY=0.5;exitDx=0;exitDy=0;entryX=0.5;entryY=0;entryDx=0;entryDy=0;" edge="1" parent="1" source="jyYj-L48Tv8d36Xd9_vX-15" target="jyYj-L48Tv8d36Xd9_vX-17">
          <mxGeometry relative="1" as="geometry">
            <mxPoint x="11758" y="400" as="targetPoint" />
          </mxGeometry>
        </mxCell>
        <mxCell id="jyYj-L48Tv8d36Xd9_vX-14" style="edgeStyle=orthogonalEdgeStyle;rounded=0;orthogonalLoop=1;jettySize=auto;html=1;exitX=0;exitY=0.5;exitDx=0;exitDy=0;endArrow=none;endFill=0;entryX=0.5;entryY=0;entryDx=0;entryDy=0;" edge="1" parent="1" source="jyYj-L48Tv8d36Xd9_vX-15" target="jyYj-L48Tv8d36Xd9_vX-21">
          <mxGeometry relative="1" as="geometry">
            <mxPoint x="11568" y="640" as="targetPoint" />
            <Array as="points">
              <mxPoint x="11390" y="311" />
              <mxPoint x="11390" y="560" />
              <mxPoint x="11567" y="560" />
            </Array>
          </mxGeometry>
        </mxCell>
        <mxCell id="jyYj-L48Tv8d36Xd9_vX-15" value="&lt;span style=&quot;font-size: 20px;&quot;&gt;initialized == 1&lt;/span&gt;" style="rhombus;whiteSpace=wrap;html=1;" vertex="1" parent="1">
          <mxGeometry x="11458" y="267" width="196.18" height="89" as="geometry" />
        </mxCell>
        <mxCell id="jyYj-L48Tv8d36Xd9_vX-16" style="edgeStyle=orthogonalEdgeStyle;rounded=0;orthogonalLoop=1;jettySize=auto;html=1;exitX=0.5;exitY=1;exitDx=0;exitDy=0;" edge="1" parent="1" source="jyYj-L48Tv8d36Xd9_vX-17">
          <mxGeometry relative="1" as="geometry">
            <mxPoint x="11739.714285714286" y="500" as="targetPoint" />
          </mxGeometry>
        </mxCell>
        <mxCell id="jyYj-L48Tv8d36Xd9_vX-17" value="&lt;span style=&quot;font-size: 23px;&quot;&gt;freeAbonentArr(arr), len)&lt;/span&gt;" style="rounded=0;whiteSpace=wrap;html=1;fontSize=20;" vertex="1" parent="1">
          <mxGeometry x="11608" y="367" width="264" height="51" as="geometry" />
        </mxCell>
        <mxCell id="jyYj-L48Tv8d36Xd9_vX-18" style="edgeStyle=orthogonalEdgeStyle;rounded=0;orthogonalLoop=1;jettySize=auto;html=1;exitX=0.5;exitY=1;exitDx=0;exitDy=0;entryX=0.5;entryY=0;entryDx=0;entryDy=0;" edge="1" parent="1" source="jyYj-L48Tv8d36Xd9_vX-19" target="jyYj-L48Tv8d36Xd9_vX-21">
          <mxGeometry relative="1" as="geometry">
            <mxPoint x="11580" y="590" as="targetPoint" />
            <Array as="points">
              <mxPoint x="11740" y="560" />
              <mxPoint x="11567" y="560" />
            </Array>
          </mxGeometry>
        </mxCell>
        <mxCell id="jyYj-L48Tv8d36Xd9_vX-19" value="&lt;span style=&quot;font-size: 23px;&quot;&gt;len = 0&lt;/span&gt;" style="rounded=0;whiteSpace=wrap;html=1;fontSize=20;" vertex="1" parent="1">
          <mxGeometry x="11628" y="460" width="224" height="51" as="geometry" />
        </mxCell>
        <mxCell id="jyYj-L48Tv8d36Xd9_vX-20" style="edgeStyle=orthogonalEdgeStyle;rounded=0;orthogonalLoop=1;jettySize=auto;html=1;exitX=0.5;exitY=1;exitDx=0;exitDy=0;entryX=0.5;entryY=0;entryDx=0;entryDy=0;" edge="1" parent="1" source="jyYj-L48Tv8d36Xd9_vX-21" target="jyYj-L48Tv8d36Xd9_vX-23">
          <mxGeometry relative="1" as="geometry">
            <mxPoint x="11566.857142857143" y="714.5" as="targetPoint" />
          </mxGeometry>
        </mxCell>
        <mxCell id="jyYj-L48Tv8d36Xd9_vX-21" value="&lt;span style=&quot;font-size: 25px;&quot;&gt;Ввод&amp;nbsp;&lt;br&gt;mode&lt;br&gt;&lt;/span&gt;" style="shape=parallelogram;perimeter=parallelogramPerimeter;whiteSpace=wrap;html=1;fixedSize=1;" vertex="1" parent="1">
          <mxGeometry x="11507" y="604.5" width="120" height="60" as="geometry" />
        </mxCell>
        <mxCell id="jyYj-L48Tv8d36Xd9_vX-22" style="edgeStyle=orthogonalEdgeStyle;rounded=0;orthogonalLoop=1;jettySize=auto;html=1;exitX=0.5;exitY=1;exitDx=0;exitDy=0;" edge="1" parent="1" source="jyYj-L48Tv8d36Xd9_vX-23">
          <mxGeometry relative="1" as="geometry">
            <mxPoint x="11566.666666666666" y="814.5" as="targetPoint" />
          </mxGeometry>
        </mxCell>
        <mxCell id="jyYj-L48Tv8d36Xd9_vX-23" value="&lt;span style=&quot;font-size: 23px;&quot;&gt;arr = readArray(len, mode)&lt;/span&gt;" style="rounded=0;whiteSpace=wrap;html=1;fontSize=20;" vertex="1" parent="1">
          <mxGeometry x="11425.5" y="713.5" width="283" height="51" as="geometry" />
        </mxCell>
        <mxCell id="jyYj-L48Tv8d36Xd9_vX-24" style="edgeStyle=orthogonalEdgeStyle;rounded=0;orthogonalLoop=1;jettySize=auto;html=1;exitX=0;exitY=0.5;exitDx=0;exitDy=0;" edge="1" parent="1" source="jyYj-L48Tv8d36Xd9_vX-26">
          <mxGeometry relative="1" as="geometry">
            <mxPoint x="11568" y="578.5" as="targetPoint" />
            <mxPoint x="11469.910000000002" y="854" as="sourcePoint" />
            <Array as="points">
              <mxPoint x="11330" y="860.5" />
              <mxPoint x="11330" y="578.5" />
            </Array>
          </mxGeometry>
        </mxCell>
        <mxCell id="jyYj-L48Tv8d36Xd9_vX-25" style="edgeStyle=orthogonalEdgeStyle;rounded=0;orthogonalLoop=1;jettySize=auto;html=1;exitX=1;exitY=0.5;exitDx=0;exitDy=0;entryX=0.5;entryY=0;entryDx=0;entryDy=0;" edge="1" parent="1" source="jyYj-L48Tv8d36Xd9_vX-26" target="jyYj-L48Tv8d36Xd9_vX-30">
          <mxGeometry relative="1" as="geometry">
            <mxPoint x="11568" y="1004.5" as="targetPoint" />
          </mxGeometry>
        </mxCell>
        <mxCell id="jyYj-L48Tv8d36Xd9_vX-26" value="&lt;span style=&quot;font-size: 20px;&quot;&gt;array == NULL&lt;/span&gt;" style="rhombus;whiteSpace=wrap;html=1;" vertex="1" parent="1">
          <mxGeometry x="11468.91" y="815.5" width="196.18" height="89" as="geometry" />
        </mxCell>
        <mxCell id="jyYj-L48Tv8d36Xd9_vX-27" value="&lt;font style=&quot;font-size: 23px;&quot;&gt;Да&lt;/font&gt;" style="edgeLabel;html=1;align=center;verticalAlign=middle;resizable=0;points=[];" vertex="1" connectable="0" parent="1">
          <mxGeometry x="11698.001428571428" y="310.2500000000002" as="geometry" />
        </mxCell>
        <mxCell id="jyYj-L48Tv8d36Xd9_vX-28" value="&lt;font style=&quot;font-size: 23px;&quot;&gt;Да&lt;/font&gt;" style="edgeLabel;html=1;align=center;verticalAlign=middle;resizable=0;points=[];" vertex="1" connectable="0" parent="1">
          <mxGeometry x="11408.001428571428" y="860.0000000000002" as="geometry" />
        </mxCell>
        <mxCell id="jyYj-L48Tv8d36Xd9_vX-29" style="edgeStyle=orthogonalEdgeStyle;rounded=0;orthogonalLoop=1;jettySize=auto;html=1;exitX=0.5;exitY=1;exitDx=0;exitDy=0;endArrow=none;endFill=0;" edge="1" parent="1" source="jyYj-L48Tv8d36Xd9_vX-30">
          <mxGeometry relative="1" as="geometry">
            <mxPoint x="11160" y="530" as="targetPoint" />
            <Array as="points">
              <mxPoint x="11567" y="1040" />
              <mxPoint x="11161" y="1040" />
              <mxPoint x="11161" y="530" />
            </Array>
          </mxGeometry>
        </mxCell>
        <mxCell id="jyYj-L48Tv8d36Xd9_vX-30" value="&lt;span style=&quot;font-size: 23px;&quot;&gt;initialized = 1&lt;/span&gt;" style="rounded=0;whiteSpace=wrap;html=1;fontSize=20;" vertex="1" parent="1">
          <mxGeometry x="11455" y="959.5" width="224" height="51" as="geometry" />
        </mxCell>
        <mxCell id="jyYj-L48Tv8d36Xd9_vX-31" value="&lt;font style=&quot;font-size: 23px;&quot;&gt;1&lt;/font&gt;" style="edgeLabel;html=1;align=center;verticalAlign=middle;resizable=0;points=[];" vertex="1" connectable="0" parent="1">
          <mxGeometry x="11420.001428571428" y="192.00000000000023" as="geometry">
            <mxPoint x="-26" y="-4" as="offset" />
          </mxGeometry>
        </mxCell>
        <mxCell id="jyYj-L48Tv8d36Xd9_vX-32" value="" style="endArrow=classic;html=1;rounded=0;entryX=0.5;entryY=0;entryDx=0;entryDy=0;" edge="1" parent="1" target="jyYj-L48Tv8d36Xd9_vX-35">
          <mxGeometry width="50" height="50" relative="1" as="geometry">
            <mxPoint x="11250" y="129.48000000000002" as="sourcePoint" />
            <mxPoint x="12030" y="250" as="targetPoint" />
            <Array as="points">
              <mxPoint x="12072" y="130" />
            </Array>
          </mxGeometry>
        </mxCell>
        <mxCell id="jyYj-L48Tv8d36Xd9_vX-33" style="edgeStyle=orthogonalEdgeStyle;rounded=0;orthogonalLoop=1;jettySize=auto;html=1;exitX=0;exitY=0.5;exitDx=0;exitDy=0;endArrow=none;endFill=0;" edge="1" parent="1" source="jyYj-L48Tv8d36Xd9_vX-35">
          <mxGeometry relative="1" as="geometry">
            <mxPoint x="11550" y="1040" as="targetPoint" />
            <Array as="points">
              <mxPoint x="11890" y="297" />
              <mxPoint x="11890" y="1040" />
            </Array>
          </mxGeometry>
        </mxCell>
        <mxCell id="jyYj-L48Tv8d36Xd9_vX-34" style="edgeStyle=orthogonalEdgeStyle;rounded=0;orthogonalLoop=1;jettySize=auto;html=1;exitX=1;exitY=0.5;exitDx=0;exitDy=0;entryX=0.5;entryY=0;entryDx=0;entryDy=0;" edge="1" parent="1" source="jyYj-L48Tv8d36Xd9_vX-35" target="jyYj-L48Tv8d36Xd9_vX-38">
          <mxGeometry relative="1" as="geometry">
            <mxPoint x="12100" y="431.02" as="targetPoint" />
            <Array as="points">
              <mxPoint x="12250" y="298.02" />
              <mxPoint x="12250" y="402.02" />
              <mxPoint x="12072" y="402.02" />
            </Array>
          </mxGeometry>
        </mxCell>
        <mxCell id="jyYj-L48Tv8d36Xd9_vX-35" value="&lt;span style=&quot;font-size: 20px;&quot;&gt;initialized == 1&lt;/span&gt;" style="rhombus;whiteSpace=wrap;html=1;" vertex="1" parent="1">
          <mxGeometry x="11974" y="253.45000000000002" width="196.18" height="89" as="geometry" />
        </mxCell>
        <mxCell id="jyYj-L48Tv8d36Xd9_vX-36" value="&lt;font style=&quot;font-size: 23px;&quot;&gt;Да&lt;/font&gt;" style="edgeLabel;html=1;align=center;verticalAlign=middle;resizable=0;points=[];" vertex="1" connectable="0" parent="1">
          <mxGeometry x="12210.001428571428" y="297.9500000000002" as="geometry" />
        </mxCell>
        <mxCell id="jyYj-L48Tv8d36Xd9_vX-37" style="edgeStyle=orthogonalEdgeStyle;rounded=0;orthogonalLoop=1;jettySize=auto;html=1;exitX=0.5;exitY=1;exitDx=0;exitDy=0;entryX=0.5;entryY=0;entryDx=0;entryDy=0;" edge="1" parent="1" source="jyYj-L48Tv8d36Xd9_vX-38" target="jyYj-L48Tv8d36Xd9_vX-40">
          <mxGeometry relative="1" as="geometry">
            <mxPoint x="12072.368421052632" y="611.02" as="targetPoint" />
          </mxGeometry>
        </mxCell>
        <mxCell id="jyYj-L48Tv8d36Xd9_vX-38" value="&lt;span style=&quot;font-size: 25px;&quot;&gt;Ввод&amp;nbsp;&lt;br&gt;mode&lt;br&gt;&lt;/span&gt;" style="shape=parallelogram;perimeter=parallelogramPerimeter;whiteSpace=wrap;html=1;fixedSize=1;" vertex="1" parent="1">
          <mxGeometry x="12012.09" y="456.52" width="120" height="60" as="geometry" />
        </mxCell>
        <mxCell id="jyYj-L48Tv8d36Xd9_vX-39" style="edgeStyle=orthogonalEdgeStyle;rounded=0;orthogonalLoop=1;jettySize=auto;html=1;endArrow=none;endFill=0;" edge="1" parent="1" source="jyYj-L48Tv8d36Xd9_vX-40">
          <mxGeometry relative="1" as="geometry">
            <mxPoint x="11880" y="1040" as="targetPoint" />
            <Array as="points">
              <mxPoint x="12072" y="1040" />
            </Array>
          </mxGeometry>
        </mxCell>
        <mxCell id="jyYj-L48Tv8d36Xd9_vX-40" value="&lt;span style=&quot;font-size: 23px;&quot;&gt;outputArray(arr, len, mode)&lt;/span&gt;" style="rounded=0;whiteSpace=wrap;html=1;fontSize=20;" vertex="1" parent="1">
          <mxGeometry x="11930.59" y="604.5" width="283" height="51" as="geometry" />
        </mxCell>
        <mxCell id="jyYj-L48Tv8d36Xd9_vX-41" value="&lt;font style=&quot;font-size: 23px;&quot;&gt;2&lt;/font&gt;" style="edgeLabel;html=1;align=center;verticalAlign=middle;resizable=0;points=[];" vertex="1" connectable="0" parent="1">
          <mxGeometry x="11683.001428571428" y="133.00000000000023" as="geometry">
            <mxPoint x="-26" y="-4" as="offset" />
          </mxGeometry>
        </mxCell>
        <mxCell id="jyYj-L48Tv8d36Xd9_vX-42" value="" style="endArrow=classic;html=1;rounded=0;entryX=0.5;entryY=0;entryDx=0;entryDy=0;" edge="1" parent="1" target="jyYj-L48Tv8d36Xd9_vX-46">
          <mxGeometry width="50" height="50" relative="1" as="geometry">
            <mxPoint x="11250" y="81.00000000000003" as="sourcePoint" />
            <mxPoint x="12560" y="205" as="targetPoint" />
            <Array as="points">
              <mxPoint x="12532" y="80" />
            </Array>
          </mxGeometry>
        </mxCell>
        <mxCell id="jyYj-L48Tv8d36Xd9_vX-43" value="&lt;font style=&quot;font-size: 23px;&quot;&gt;3&lt;/font&gt;" style="edgeLabel;html=1;align=center;verticalAlign=middle;resizable=0;points=[];" vertex="1" connectable="0" parent="1">
          <mxGeometry x="11900.001428571428" y="83.93000000000023" as="geometry">
            <mxPoint x="-26" y="-4" as="offset" />
          </mxGeometry>
        </mxCell>
        <mxCell id="jyYj-L48Tv8d36Xd9_vX-44" style="edgeStyle=orthogonalEdgeStyle;rounded=0;orthogonalLoop=1;jettySize=auto;html=1;exitX=1;exitY=0.5;exitDx=0;exitDy=0;entryX=0.5;entryY=0;entryDx=0;entryDy=0;" edge="1" parent="1" source="jyYj-L48Tv8d36Xd9_vX-46" target="jyYj-L48Tv8d36Xd9_vX-49">
          <mxGeometry relative="1" as="geometry">
            <mxPoint x="12560" y="431.02" as="targetPoint" />
            <Array as="points">
              <mxPoint x="12710" y="298.02" />
              <mxPoint x="12710" y="402.02" />
              <mxPoint x="12532" y="402.02" />
            </Array>
          </mxGeometry>
        </mxCell>
        <mxCell id="jyYj-L48Tv8d36Xd9_vX-45" style="edgeStyle=orthogonalEdgeStyle;rounded=0;orthogonalLoop=1;jettySize=auto;html=1;exitX=0;exitY=0.5;exitDx=0;exitDy=0;endArrow=none;endFill=0;" edge="1" parent="1" source="jyYj-L48Tv8d36Xd9_vX-46">
          <mxGeometry relative="1" as="geometry">
            <mxPoint x="12050" y="1040" as="targetPoint" />
            <Array as="points">
              <mxPoint x="12321" y="298" />
              <mxPoint x="12321" y="1040" />
            </Array>
          </mxGeometry>
        </mxCell>
        <mxCell id="jyYj-L48Tv8d36Xd9_vX-46" value="&lt;span style=&quot;font-size: 20px;&quot;&gt;initialized == 1&lt;/span&gt;" style="rhombus;whiteSpace=wrap;html=1;" vertex="1" parent="1">
          <mxGeometry x="12434" y="253.45000000000005" width="196.18" height="89" as="geometry" />
        </mxCell>
        <mxCell id="jyYj-L48Tv8d36Xd9_vX-47" value="&lt;font style=&quot;font-size: 23px;&quot;&gt;Да&lt;/font&gt;" style="edgeLabel;html=1;align=center;verticalAlign=middle;resizable=0;points=[];" vertex="1" connectable="0" parent="1">
          <mxGeometry x="12670.001428571428" y="297.9500000000002" as="geometry" />
        </mxCell>
        <mxCell id="jyYj-L48Tv8d36Xd9_vX-48" style="edgeStyle=orthogonalEdgeStyle;rounded=0;orthogonalLoop=1;jettySize=auto;html=1;exitX=0.5;exitY=1;exitDx=0;exitDy=0;" edge="1" parent="1" source="jyYj-L48Tv8d36Xd9_vX-49">
          <mxGeometry relative="1" as="geometry">
            <mxPoint x="12532" y="560" as="targetPoint" />
          </mxGeometry>
        </mxCell>
        <mxCell id="jyYj-L48Tv8d36Xd9_vX-49" value="&lt;span style=&quot;font-size: 25px;&quot;&gt;Ввод&amp;nbsp;&lt;br&gt;sort_algol&lt;br&gt;&lt;/span&gt;" style="shape=parallelogram;perimeter=parallelogramPerimeter;whiteSpace=wrap;html=1;fixedSize=1;" vertex="1" parent="1">
          <mxGeometry x="12453.14" y="455.5" width="157.91" height="60" as="geometry" />
        </mxCell>
        <mxCell id="jyYj-L48Tv8d36Xd9_vX-50" style="edgeStyle=orthogonalEdgeStyle;rounded=0;orthogonalLoop=1;jettySize=auto;html=1;exitX=0.5;exitY=1;exitDx=0;exitDy=0;" edge="1" parent="1" source="jyYj-L48Tv8d36Xd9_vX-51">
          <mxGeometry relative="1" as="geometry">
            <mxPoint x="12531.714285714286" y="670" as="targetPoint" />
          </mxGeometry>
        </mxCell>
        <mxCell id="jyYj-L48Tv8d36Xd9_vX-51" value="&lt;span style=&quot;font-size: 25px;&quot;&gt;Ввод&lt;br&gt;field&lt;br&gt;&lt;/span&gt;" style="shape=parallelogram;perimeter=parallelogramPerimeter;whiteSpace=wrap;html=1;fixedSize=1;" vertex="1" parent="1">
          <mxGeometry x="12453.14" y="560" width="157.91" height="60" as="geometry" />
        </mxCell>
        <mxCell id="jyYj-L48Tv8d36Xd9_vX-52" style="edgeStyle=orthogonalEdgeStyle;rounded=0;orthogonalLoop=1;jettySize=auto;html=1;exitX=0.5;exitY=1;exitDx=0;exitDy=0;" edge="1" parent="1" source="jyYj-L48Tv8d36Xd9_vX-53" target="jyYj-L48Tv8d36Xd9_vX-54">
          <mxGeometry relative="1" as="geometry">
            <mxPoint x="12531.714285714286" y="790" as="targetPoint" />
          </mxGeometry>
        </mxCell>
        <mxCell id="jyYj-L48Tv8d36Xd9_vX-53" value="&lt;span style=&quot;font-size: 25px;&quot;&gt;Ввод&lt;br&gt;d&lt;br&gt;&lt;/span&gt;" style="shape=parallelogram;perimeter=parallelogramPerimeter;whiteSpace=wrap;html=1;fixedSize=1;" vertex="1" parent="1">
          <mxGeometry x="12453.14" y="675.5" width="157.91" height="60" as="geometry" />
        </mxCell>
        <mxCell id="jyYj-L48Tv8d36Xd9_vX-54" value="" style="ellipse;whiteSpace=wrap;html=1;aspect=fixed;" vertex="1" parent="1">
          <mxGeometry x="12506.59" y="780" width="51" height="51" as="geometry" />
        </mxCell>
        <mxCell id="jyYj-L48Tv8d36Xd9_vX-55" style="edgeStyle=orthogonalEdgeStyle;rounded=0;orthogonalLoop=1;jettySize=auto;html=1;exitX=0.5;exitY=1;exitDx=0;exitDy=0;" edge="1" parent="1" source="jyYj-L48Tv8d36Xd9_vX-56">
          <mxGeometry relative="1" as="geometry">
            <mxPoint x="12857.41" y="227.53" as="targetPoint" />
          </mxGeometry>
        </mxCell>
        <mxCell id="jyYj-L48Tv8d36Xd9_vX-56" value="" style="ellipse;whiteSpace=wrap;html=1;aspect=fixed;" vertex="1" parent="1">
          <mxGeometry x="12831.41" y="123.03" width="51" height="51" as="geometry" />
        </mxCell>
        <mxCell id="jyYj-L48Tv8d36Xd9_vX-57" style="edgeStyle=orthogonalEdgeStyle;rounded=0;orthogonalLoop=1;jettySize=auto;html=1;exitX=0.5;exitY=1;exitDx=0;exitDy=0;entryX=0.5;entryY=0;entryDx=0;entryDy=0;" edge="1" parent="1" source="jyYj-L48Tv8d36Xd9_vX-58" target="jyYj-L48Tv8d36Xd9_vX-66">
          <mxGeometry relative="1" as="geometry">
            <mxPoint x="12856.23" y="755.03" as="targetPoint" />
          </mxGeometry>
        </mxCell>
        <mxCell id="jyYj-L48Tv8d36Xd9_vX-58" value="&lt;span style=&quot;font-size: 20px;&quot;&gt;sort_algol&lt;/span&gt;" style="rhombus;whiteSpace=wrap;html=1;" vertex="1" parent="1">
          <mxGeometry x="12769.23" y="227.41" width="175.35" height="89" as="geometry" />
        </mxCell>
        <mxCell id="jyYj-L48Tv8d36Xd9_vX-59" value="" style="endArrow=classic;html=1;rounded=0;entryX=0.5;entryY=0;entryDx=0;entryDy=0;" edge="1" parent="1" target="jyYj-L48Tv8d36Xd9_vX-61">
          <mxGeometry width="50" height="50" relative="1" as="geometry">
            <mxPoint x="11250" y="57.88000000000003" as="sourcePoint" />
            <mxPoint x="13320" y="210" as="targetPoint" />
            <Array as="points">
              <mxPoint x="13332" y="50" />
            </Array>
          </mxGeometry>
        </mxCell>
        <mxCell id="jyYj-L48Tv8d36Xd9_vX-60" style="edgeStyle=orthogonalEdgeStyle;rounded=0;orthogonalLoop=1;jettySize=auto;html=1;exitX=0.5;exitY=1;exitDx=0;exitDy=0;entryX=0.5;entryY=0;entryDx=0;entryDy=0;" edge="1" parent="1" source="jyYj-L48Tv8d36Xd9_vX-61" target="jyYj-L48Tv8d36Xd9_vX-62">
          <mxGeometry relative="1" as="geometry">
            <mxPoint x="13331.666666666666" y="380" as="targetPoint" />
          </mxGeometry>
        </mxCell>
        <mxCell id="jyYj-L48Tv8d36Xd9_vX-61" value="&lt;span style=&quot;font-size: 23px;&quot;&gt;freeAbonentArr(arr, len)&lt;/span&gt;" style="rounded=0;whiteSpace=wrap;html=1;fontSize=20;" vertex="1" parent="1">
          <mxGeometry x="13190" y="257.95" width="283" height="51" as="geometry" />
        </mxCell>
        <mxCell id="jyYj-L48Tv8d36Xd9_vX-62" value="&lt;p style=&quot;line-height: 110%;&quot;&gt;&lt;span style=&quot;font-size: 18px;&quot;&gt;Конец&lt;/span&gt;&lt;/p&gt;" style="ellipse;whiteSpace=wrap;html=1;" vertex="1" parent="1">
          <mxGeometry x="13276.5" y="415.5" width="110" height="60" as="geometry" />
        </mxCell>
        <mxCell id="jyYj-L48Tv8d36Xd9_vX-63" value="" style="endArrow=classic;html=1;rounded=0;entryX=0.5;entryY=0;entryDx=0;entryDy=0;" edge="1" parent="1" target="jyYj-L48Tv8d36Xd9_vX-68">
          <mxGeometry width="50" height="50" relative="1" as="geometry">
            <mxPoint x="12860" y="640" as="sourcePoint" />
            <mxPoint x="13340" y="740" as="targetPoint" />
            <Array as="points">
              <mxPoint x="13375" y="640" />
            </Array>
          </mxGeometry>
        </mxCell>
        <mxCell id="jyYj-L48Tv8d36Xd9_vX-64" value="" style="endArrow=classic;html=1;rounded=0;entryX=0.5;entryY=0;entryDx=0;entryDy=0;" edge="1" parent="1" target="jyYj-L48Tv8d36Xd9_vX-67">
          <mxGeometry width="50" height="50" relative="1" as="geometry">
            <mxPoint x="12860" y="700" as="sourcePoint" />
            <mxPoint x="13160" y="770" as="targetPoint" />
            <Array as="points">
              <mxPoint x="13107" y="700" />
            </Array>
          </mxGeometry>
        </mxCell>
        <mxCell id="jyYj-L48Tv8d36Xd9_vX-65" style="edgeStyle=orthogonalEdgeStyle;rounded=0;orthogonalLoop=1;jettySize=auto;html=1;exitX=0.5;exitY=1;exitDx=0;exitDy=0;endArrow=none;endFill=0;" edge="1" parent="1" source="jyYj-L48Tv8d36Xd9_vX-66">
          <mxGeometry relative="1" as="geometry">
            <mxPoint x="12320" y="1040" as="targetPoint" />
            <Array as="points">
              <mxPoint x="12857" y="1040" />
            </Array>
          </mxGeometry>
        </mxCell>
        <mxCell id="jyYj-L48Tv8d36Xd9_vX-66" value="&lt;span style=&quot;font-size: 23px;&quot;&gt;quickSort(arr, n, f, d)&lt;/span&gt;" style="rounded=0;whiteSpace=wrap;html=1;fontSize=20;" vertex="1" parent="1">
          <mxGeometry x="12740" y="799" width="233.82" height="51" as="geometry" />
        </mxCell>
        <mxCell id="jyYj-L48Tv8d36Xd9_vX-67" value="&lt;font style=&quot;font-size: 20px;&quot;&gt;oddEvenSort(arr, n, f, d)&lt;/font&gt;" style="rounded=0;whiteSpace=wrap;html=1;fontSize=20;" vertex="1" parent="1">
          <mxGeometry x="12990" y="799" width="233.82" height="51" as="geometry" />
        </mxCell>
        <mxCell id="jyYj-L48Tv8d36Xd9_vX-68" value="&lt;font style=&quot;font-size: 19px;&quot;&gt;doubleSelectionSort(arr, n, f, d)&lt;/font&gt;" style="rounded=0;whiteSpace=wrap;html=1;fontSize=20;" vertex="1" parent="1">
          <mxGeometry x="13240" y="799" width="270" height="51" as="geometry" />
        </mxCell>
        <mxCell id="jyYj-L48Tv8d36Xd9_vX-69" style="edgeStyle=orthogonalEdgeStyle;rounded=0;orthogonalLoop=1;jettySize=auto;html=1;exitX=0.5;exitY=1;exitDx=0;exitDy=0;endArrow=none;endFill=0;" edge="1" parent="1" source="jyYj-L48Tv8d36Xd9_vX-67">
          <mxGeometry relative="1" as="geometry">
            <mxPoint x="12580" y="1040" as="targetPoint" />
            <mxPoint x="13106.91" y="805" as="sourcePoint" />
            <Array as="points">
              <mxPoint x="13107" y="1040" />
            </Array>
          </mxGeometry>
        </mxCell>
        <mxCell id="jyYj-L48Tv8d36Xd9_vX-70" style="edgeStyle=orthogonalEdgeStyle;rounded=0;orthogonalLoop=1;jettySize=auto;html=1;exitX=0.5;exitY=1;exitDx=0;exitDy=0;endArrow=none;endFill=0;" edge="1" parent="1">
          <mxGeometry relative="1" as="geometry">
            <mxPoint x="12850" y="1040" as="targetPoint" />
            <mxPoint x="13377" y="850" as="sourcePoint" />
            <Array as="points">
              <mxPoint x="13377" y="1040" />
            </Array>
          </mxGeometry>
        </mxCell>
      </root>
    </mxGraphModel>
  </diagram>
</mxfile>
